<?xml version="1.0" encoding="UTF-8" standalone="no"?>
<!-- Created with Inkscape (http://www.inkscape.org/) -->

<svg
   width="62.587021mm"
   height="31.037979mm"
   viewBox="0 0 62.587021 31.037979"
   version="1.1"
   id="svg1"
   xml:space="preserve"
   xmlns="http://www.w3.org/2000/svg"
   xmlns:svg="http://www.w3.org/2000/svg"><defs
     id="defs1" /><g
     id="layer2"
     style="opacity:1"
     transform="matrix(0.37875207,0,0,0.37875207,-8.5029114,-54.235099)"><path
       style="display:inline;fill:#000000;stroke-width:0.264583"
       d="m 52.996283,180.79461 c -8.188662,17.2974 -4.784387,33.03067 -4.784387,33.03067 -3.864312,3.7723 -4.692379,7.17658 -4.692379,7.17658 H 23.921933 c -3.312268,2.57621 0,4.14033 0,4.14033 H 185.85502 c 4.14033,-2.30018 0,-4.04832 0,-4.04832 h -19.41357 c -0.18401,-3.22026 -4.9684,-7.45261 -4.9684,-7.45261 2.85223,-14.81319 -3.86431,-31.19052 -3.86431,-31.19052 9.84479,-10.30483 6.44052,-22.3578 6.44052,-22.3578 -4.32435,-15.27324 -18.41451,-16.80031 -18.41451,-16.80031 -13.85758,-1.00842 -20.13661,8.88767 -20.13661,8.88767 -20.79368,-9.01673 -39.262329,-1.08059 -39.262329,-1.08059 0,0 -6.343261,-8.00227 -17.923777,-7.90467 -11.580516,0.0976 -17.661942,11.10143 -17.661942,11.10143 0,0 -4.186338,6.2565 -2.208178,16.23931 0,0 0.506042,4.64638 4.554369,10.25883 z"
       id="path4" /><path
       style="fill:#ffffff;fill-opacity:1;stroke-width:0.264583"
       d="m 50.94126,211.76731 c 0,0 17.891247,-9.36851 25.828456,9.17333 H 133.241 c 0,0 7.67697,-18.2816 25.56822,-9.17333 0,0 2.34212,-17.11054 -3.90355,-28.626 0,0 -10.0191,-22.77067 -29.86212,-28.62599 0,0 -16.72018,-8.2625 -40.271567,0 0,0 -18.606897,6.24567 -28.821173,26.28387 0,0 -7.546855,13.53229 -5.00955,30.96812 z"
       id="path5" /><path
       style="fill:#000000;fill-opacity:1;stroke-width:0.264583"
       d="m 105.2105,168.69563 c 0,0 -2.39219,-0.78206 -3.40427,-3.31227 0,0 0.78206,-2.5302 2.94423,-2.66821 0,0 3.77231,-0.59805 5.75047,1.47212 0,0 1.61013,1.51812 0.36803,3.22026 0,0 -0.96608,1.05808 -2.71422,1.51812 0,0 2.85223,5.19842 4.27835,5.61245 0,0 -1.38012,0 -2.89824,-1.3341 0,0 -3.17426,-3.35827 -2.71422,-3.6803 0,0 -0.64405,1.93216 -2.57621,3.45028 0,0 -1.42611,1.47212 -3.49628,2.11617 0,0 3.68029,-3.5883 4.46236,-6.39452 z"
       id="path7" /><path
       style="fill:#000000;fill-opacity:1;stroke-width:0.264583"
       d="m 65.555296,171.04182 c 9.108736,-10.53485 17.067379,-11.73095 17.067379,-11.73095 0,0 7.912641,-1.70213 10.350838,1.1501 0,0 3.174257,3.31226 2.208179,6.76254 0,0 0.09201,3.45028 -10.442844,11.96097 0,0 -5.244424,5.24442 -13.617101,4.9684 0,0 -11.270913,-1.56413 -5.566451,-13.11106 z"
       id="path6" /><path
       style="fill:#ffffff;fill-opacity:1;stroke-width:0.264583"
       id="path9"
       d="m 91.434145,162.80249 a 2.5963542,2.5238905 0 0 1 -2.441833,2.66543 2.5963542,2.5238905 0 0 1 -2.74218,-2.37344 2.5963542,2.5238905 0 0 1 2.441331,-2.66586 2.5963542,2.5238905 0 0 1 2.742627,2.37295 l -2.591965,0.14669 z" /><path
       style="fill:#000000;fill-opacity:1;stroke-width:0.264583"
       d="m 130.28253,181.16264 c 0,0 -13.47909,-8.23467 -14.8132,-14.62919 0,0 -1.15009,-5.47443 3.91032,-8.00464 0,0 4.83039,-2.34619 13.98513,2.16218 0,0 9.43076,5.0604 12.32899,10.62685 0,0 3.08225,6.39452 -1.38011,9.98281 0,0 -5.56644,4.64638 -14.03113,-0.13801 z"
       id="path8" /><path
       style="fill:#ffffff;fill-opacity:1;stroke-width:0.264583"
       id="path10"
       d="m 124.37479,162.11846 a 2.455539,2.525697 0 0 1 -2.3094,2.66734 2.455539,2.525697 0 0 1 -2.59346,-2.37514 2.455539,2.525697 0 0 1 2.30893,-2.66777 2.455539,2.525697 0 0 1 2.59388,2.37465 l -2.45139,0.14679 z" /></g></svg>
